<?xml version="1.0" encoding="utf-8"?>
<!-- Generator: Adobe Illustrator 16.0.0, SVG Export Plug-In . SVG Version: 6.00 Build 0)  -->
<!DOCTYPE svg PUBLIC "-//W3C//DTD SVG 1.1//EN" "http://www.w3.org/Graphics/SVG/1.1/DTD/svg11.dtd">
<svg version="1.1" id="Layer_1" xmlns="http://www.w3.org/2000/svg" xmlns:xlink="http://www.w3.org/1999/xlink" x="0px" y="0px"
	 width="19.125px" height="27.328px" viewBox="2.5 -7.974 19.125 27.328" enable-background="new 2.5 -7.974 19.125 27.328"
	 xml:space="preserve">
<path fill-rule="evenodd" clip-rule="evenodd" fill="#666666" d="M2.965,11.518c0.046-0.369,0.081-0.74,0.141-1.107
	C3.355,8.878,3.941,7.47,4.7,6.126c0.668-1.184,1.476-2.273,2.265-3.375c0.751-1.049,1.488-2.108,2.227-3.167
	c0.067-0.096,0.133-0.138,0.254-0.138c1.709,0.004,3.419,0.003,5.128,0.002c0.09,0,0.156,0.013,0.216,0.097
	c1.02,1.446,2.041,2.89,3.064,4.333c0.897,1.265,1.724,2.57,2.316,4.01c0.451,1.1,0.749,2.235,0.838,3.422
	c0.004,0.049,0.018,0.098,0.026,0.146c0,0.434,0,0.867,0,1.301c-0.046,0.314-0.076,0.631-0.139,0.941
	c-0.379,1.85-1.433,3.227-3.01,4.223c-0.347,0.219-0.719,0.4-1.047,0.582c-0.285-0.246-0.536-0.461-0.792-0.684
	c0.036-0.016,0.086-0.041,0.14-0.063c1.157-0.471,2.155-1.154,2.897-2.178c0.675-0.934,0.98-1.986,1.02-3.129
	c0.068-1.973-0.49-3.783-1.408-5.501c-0.616-1.155-1.375-2.217-2.139-3.277c-0.758-1.051-1.504-2.11-2.251-3.169
	c-0.066-0.093-0.131-0.127-0.244-0.127C12.684,0.381,11.307,0.38,9.93,0.379c-0.082,0-0.147,0.004-0.206,0.087
	C8.708,1.901,7.681,3.33,6.667,4.768C5.823,5.967,5.073,7.22,4.557,8.599c-0.548,1.464-0.796,2.97-0.598,4.529
	c0.214,1.678,1.087,2.955,2.472,3.895c0.18,0.123,0.298,0.246,0.344,0.471c0.08,0.391,0.29,0.727,0.571,1.051
	c-0.058-0.014-0.085-0.016-0.11-0.025c-1.264-0.561-2.348-1.35-3.146-2.496c-0.648-0.934-0.998-1.973-1.094-3.102
	c-0.006-0.074-0.021-0.148-0.031-0.223C2.965,12.305,2.965,11.913,2.965,11.518z"/>
<path fill-rule="evenodd" clip-rule="evenodd" fill="#666666" d="M16.132-7.974c0.013,0.008,0.024,0.018,0.038,0.022
	c0.505,0.161,0.656,0.541,0.384,0.997c-0.095,0.159-0.207,0.316-0.342,0.439c-0.544,0.495-0.894,1.116-1.173,1.779
	c-0.176,0.417-0.313,0.85-0.458,1.279c-0.032,0.096-0.067,0.135-0.176,0.135c-1.598-0.004-3.196-0.004-4.795,0
	c-0.111,0-0.157-0.037-0.19-0.14C9.155-4.286,8.78-5.052,8.195-5.7c-0.158-0.176-0.337-0.333-0.5-0.504
	C7.606-6.299,7.518-6.399,7.453-6.511C7.248-6.863,7.448-7.232,7.854-7.238C8.01-7.24,8.177-7.204,8.322-7.145
	c0.26,0.107,0.509,0.242,0.76,0.37c0.595,0.302,1.13,0.197,1.621-0.23c0.137-0.119,0.267-0.247,0.41-0.358
	c0.372-0.291,0.706-0.264,1.034,0.072c0.056,0.058,0.115,0.113,0.165,0.176c0.309,0.387,0.715,0.458,1.157,0.329
	c0.233-0.068,0.448-0.2,0.67-0.306c0.05-0.024,0.093-0.061,0.138-0.094c0.448-0.334,0.895-0.673,1.462-0.788
	C15.869-7.974,16-7.974,16.132-7.974z M9.431-5.688C9.65-5.245,9.869-4.815,10.074-4.38c0.046,0.1,0.098,0.128,0.202,0.128
	c1.14-0.003,2.279-0.004,3.418,0c0.113,0,0.166-0.031,0.204-0.14c0.25-0.722,0.582-1.405,1-2.044c0.009-0.014,0.012-0.03,0.03-0.075
	c-1.144,0.82-2.258,1.087-3.363-0.029C10.975-5.932,10.289-5.58,9.431-5.688z"/>
<path fill-rule="evenodd" clip-rule="evenodd" fill="#666666" d="M9.018,18.688c-0.011-0.01-0.021-0.021-0.034-0.029
	c-0.317-0.168-0.389-0.439-0.189-0.74c0.757-1.137,1.515-2.273,2.272-3.41c0.456-0.684,0.907-1.371,1.372-2.049
	c0.071-0.104,0.193-0.197,0.312-0.238c0.185-0.063,0.36,0.004,0.479,0.17c0.12,0.17,0.128,0.352,0.017,0.525
	c-0.201,0.313-0.41,0.623-0.617,0.932c-1.005,1.506-2.007,3.014-3.017,4.514c-0.083,0.125-0.213,0.219-0.321,0.326
	C9.199,18.688,9.108,18.688,9.018,18.688z"/>
<path fill-rule="evenodd" clip-rule="evenodd" fill="#666666" d="M13.527,18.688c-0.047-0.016-0.093-0.035-0.14-0.047
	c-0.799-0.201-1.314-0.957-1.216-1.779c0.097-0.813,0.791-1.418,1.622-1.418c0.819,0.002,1.51,0.621,1.602,1.439
	c0.092,0.813-0.432,1.564-1.226,1.758c-0.054,0.014-0.105,0.031-0.158,0.047C13.85,18.688,13.688,18.688,13.527,18.688z
	 M13.094,17.061c-0.004,0.385,0.3,0.693,0.685,0.695c0.381,0.004,0.695-0.307,0.696-0.686s-0.311-0.695-0.688-0.697
	C13.405,16.372,13.097,16.678,13.094,17.061z"/>
<path fill-rule="evenodd" clip-rule="evenodd" fill="#666666" d="M9.213,9.304c0.211,0.01,0.423,0.011,0.633,0.034
	c0.18,0.021,0.286,0.131,0.292,0.312c0.01,0.328,0.019,0.656-0.006,0.982c-0.008,0.107-0.095,0.246-0.187,0.305
	c-0.768,0.477-1.59,0.605-2.44,0.266c-0.683-0.275-0.995-0.846-1.048-1.553C6.435,9.376,6.455,9.091,6.514,8.824
	c0.154-0.693,0.597-1.128,1.286-1.299c0.525-0.131,1.049-0.129,1.555,0.096c0.271,0.12,0.485,0.306,0.614,0.578
	c0.112,0.237,0.065,0.445-0.115,0.545C9.657,8.853,9.448,8.798,9.314,8.573c-0.37-0.618-0.93-0.603-1.358-0.451
	c-0.288,0.103-0.482,0.313-0.59,0.593C7.181,9.19,7.187,9.674,7.382,10.143c0.184,0.441,0.609,0.689,1.132,0.633
	c0.275-0.029,0.541-0.141,0.811-0.217C9.354,10.551,9.4,10.53,9.4,10.514c0.007-0.199,0.01-0.398,0.004-0.596
	c0-0.01-0.08-0.023-0.124-0.025C9.06,9.887,8.837,9.895,8.617,9.875C8.452,9.86,8.376,9.762,8.374,9.618
	C8.372,9.47,8.455,9.364,8.609,9.329c0.053-0.012,0.11-0.011,0.165-0.017c0.005,0,0.01,0,0.015,0c0.141,0,0.282,0,0.423,0
	C9.213,9.31,9.213,9.307,9.213,9.304z"/>
<path fill-rule="evenodd" clip-rule="evenodd" fill="#666666" d="M9.842,13.84c-0.009,0.908-0.736,1.613-1.656,1.605
	c-0.901-0.008-1.597-0.752-1.584-1.691c0.011-0.859,0.758-1.563,1.647-1.551C9.145,12.217,9.852,12.942,9.842,13.84z M8.227,14.514
	c0.376-0.002,0.695-0.322,0.69-0.695c-0.004-0.375-0.328-0.693-0.7-0.689c-0.381,0.004-0.688,0.318-0.686,0.699
	S7.845,14.516,8.227,14.514z"/>
<path fill-rule="evenodd" clip-rule="evenodd" fill="#666666" d="M12.476,11.385c-0.571-0.014-1.003-0.086-1.332-0.441
	c-0.157-0.172-0.267-0.367-0.299-0.6c-0.027-0.199,0.064-0.355,0.233-0.408c0.172-0.053,0.314,0.012,0.41,0.191
	c0.062,0.115,0.112,0.236,0.174,0.352c0.261,0.484,1.108,0.393,1.342,0.053c0.145-0.209,0.128-0.492-0.089-0.627
	c-0.175-0.109-0.384-0.166-0.582-0.234c-0.285-0.098-0.583-0.163-0.858-0.284c-0.361-0.158-0.557-0.451-0.559-0.858
	c-0.002-0.415,0.181-0.726,0.551-0.899c0.537-0.252,1.094-0.265,1.64-0.03c0.311,0.133,0.535,0.361,0.578,0.72
	c0.028,0.245-0.139,0.438-0.364,0.405c-0.087-0.012-0.182-0.08-0.241-0.15c-0.094-0.11-0.163-0.24-0.236-0.366
	c-0.169-0.285-0.909-0.285-1.131,0.009c-0.121,0.158-0.119,0.364,0.046,0.481c0.124,0.088,0.273,0.15,0.418,0.197
	c0.303,0.098,0.614,0.162,0.913,0.268c0.541,0.19,0.772,0.516,0.766,1.03c-0.006,0.504-0.303,0.916-0.801,1.076
	C12.832,11.338,12.594,11.364,12.476,11.385z"/>
<path fill-rule="evenodd" clip-rule="evenodd" fill="#666666" d="M15.552,8.058c-0.264,0-0.51,0.001-0.756-0.002
	c-0.08-0.001-0.162-0.005-0.24-0.021c-0.147-0.03-0.23-0.13-0.236-0.272c-0.006-0.152,0.07-0.259,0.224-0.3
	c0.052-0.014,0.108-0.019,0.164-0.019c0.826,0,1.653-0.001,2.48,0c0.153,0,0.295,0.034,0.357,0.197
	c0.073,0.192-0.039,0.379-0.264,0.398c-0.26,0.023-0.523,0.021-0.785,0.015c-0.139-0.004-0.179,0.034-0.177,0.175
	c0.006,0.902,0.004,1.804,0.002,2.707c-0.001,0.287-0.123,0.434-0.363,0.445c-0.194,0.01-0.347-0.1-0.387-0.289
	c-0.018-0.082-0.019-0.17-0.019-0.256c-0.001-0.867-0.001-1.734-0.001-2.601C15.552,8.186,15.552,8.136,15.552,8.058z"/>
<path fill-rule="evenodd" clip-rule="evenodd" fill="#666666" d="M12.002-1.472c-0.917,0-1.834,0.001-2.752,0
	c-0.222,0-0.386-0.103-0.457-0.285C8.722-1.943,8.755-2.114,8.889-2.262C9-2.384,9.147-2.403,9.304-2.403
	c1.421,0.001,2.842,0,4.264,0c0.378,0,0.755,0,1.133,0c0.333,0,0.553,0.189,0.549,0.47c-0.005,0.281-0.214,0.459-0.541,0.459
	C13.806-1.472,12.903-1.472,12.002-1.472L12.002-1.472z"/>
</svg>
