<?xml version="1.0" encoding="utf-8"?>
<!-- Generator: Adobe Illustrator 16.0.0, SVG Export Plug-In . SVG Version: 6.00 Build 0)  -->
<!DOCTYPE svg PUBLIC "-//W3C//DTD SVG 1.1//EN" "http://www.w3.org/Graphics/SVG/1.1/DTD/svg11.dtd">
<svg version="1.1" id="Layer_1" xmlns="http://www.w3.org/2000/svg" xmlns:xlink="http://www.w3.org/1999/xlink" x="0px" y="0px"
	 width="24px" height="24px" viewBox="0 0 24 24" enable-background="new 0 0 24 24" xml:space="preserve">
<g>
	<path fill-rule="evenodd" clip-rule="evenodd" fill="#020302" d="M6.786,11.504c-0.556-0.685-0.626-1.433-0.619-2.216
		C6.185,7.392,6.17,5.496,6.173,3.601c0.002-1.749,1.106-2.872,2.851-2.879c2.103-0.01,4.205-0.01,6.307,0
		c1.736,0.009,2.85,1.146,2.851,2.888c0.001,1.85-0.011,3.7,0.006,5.549c0.007,0.826-0.041,1.625-0.631,2.346
		c1.225,0,2.38-0.004,3.536,0c0.827,0.003,1.52,0.315,2.064,0.937c0.46,0.523,0.662,1.146,0.663,1.835
		c0.003,2.068,0.01,4.136-0.001,6.204c-0.009,1.623-1.16,2.781-2.779,2.791c-2.068,0.014-4.136,0.01-6.204,0.001
		c-1.332-0.006-2.311-0.753-2.704-2.031c-0.016-0.05,0-0.118-0.075-0.144c-0.111,0.017-0.08,0.123-0.1,0.188
		c-0.38,1.209-1.335,1.969-2.601,1.981c-2.125,0.022-4.251,0.027-6.376-0.001c-1.548-0.021-2.682-1.179-2.695-2.729
		c-0.019-2.102-0.02-4.205,0-6.308c0.015-1.579,1.19-2.718,2.77-2.725C4.272,11.5,5.489,11.504,6.786,11.504z M15.083,21.773
		c0.115,0.006,0.229,0.018,0.343,0.018c1.838,0.001,3.676,0.002,5.513,0.001c0.938-0.001,1.398-0.457,1.399-1.39
		c0.002-2.01,0.002-4.02,0-6.029c-0.001-0.926-0.475-1.402-1.396-1.403c-1.849-0.001-3.697-0.001-5.547,0
		c-0.103,0-0.204,0.015-0.307,0.022c-0.987-0.107-1.574,0.403-1.574,1.379c-0.002,1.996-0.001,3.993,0,5.989
		C13.515,21.377,14.063,21.868,15.083,21.773z M3.366,21.774c1.952,0.005,3.904,0.014,5.856,0.016
		c0.875,0.001,1.362-0.489,1.363-1.369c0.003-2.021,0.003-4.043,0-6.064c-0.001-0.885-0.504-1.387-1.391-1.388
		c-1.838-0.004-3.675-0.002-5.513,0c-0.103,0-0.205,0.014-0.308,0.021c-0.878-0.162-1.641,0.396-1.621,1.401
		c0.042,2.026,0.017,4.055,0.009,6.083C1.761,20.876,1.87,21.22,2.17,21.49C2.515,21.801,2.934,21.822,3.366,21.774z M9.225,2.208
		C8.141,2.135,7.638,2.6,7.638,3.676c0,1.951,0,3.903,0,5.854c0,1.071,0.513,1.545,1.588,1.47c2.009,0.005,4.018,0.012,6.027,0.015
		c0.985,0.001,1.455-0.466,1.455-1.452c0.002-1.975,0.001-3.95-0.001-5.925c0-0.149-0.006-0.3-0.03-0.445
		c-0.093-0.553-0.554-0.989-1.115-0.992C13.449,2.192,11.338,2.204,9.225,2.208z M12.657,12.501c-0.438,0-0.805,0-1.206,0
		c0.28,0.383,0.463,0.767,0.584,1.207C12.204,13.299,12.347,12.883,12.657,12.501z"/>
	<path fill-rule="evenodd" clip-rule="evenodd" fill="#F1F1EF" d="M9.225,2.208c2.113-0.003,4.225-0.015,6.337-0.006
		c0.562,0.002,1.022,0.438,1.115,0.992c0.024,0.146,0.03,0.296,0.03,0.445c0.002,1.975,0.003,3.95,0.001,5.925
		c0,0.986-0.47,1.454-1.455,1.452c-2.009-0.003-4.018-0.01-6.027-0.015C8.854,10.418,8.869,9.77,8.874,9.113
		C8.886,7.359,8.89,5.605,8.872,3.852C8.865,3.269,8.913,2.714,9.225,2.208z M12.793,6.611c0-0.895-0.006-1.79,0.004-2.684
		c0.002-0.201-0.038-0.291-0.264-0.278c-0.331,0.02-0.665,0.015-0.998,0.002c-0.184-0.007-0.233,0.06-0.232,0.237
		c0.005,1.813,0.006,3.625-0.001,5.438c0,0.193,0.079,0.231,0.246,0.226c0.321-0.008,0.643-0.015,0.963,0.002
		c0.229,0.013,0.29-0.067,0.286-0.292C12.785,8.377,12.793,7.494,12.793,6.611z"/>
	<path fill-rule="evenodd" clip-rule="evenodd" fill="#2EDC82" d="M3.373,12.99c0.103-0.008,0.205-0.021,0.308-0.021
		c1.838-0.002,3.675-0.004,5.513,0c0.887,0.001,1.39,0.503,1.391,1.388c0.003,2.021,0.003,4.043,0,6.064
		c-0.001,0.88-0.488,1.37-1.363,1.369c-1.952-0.002-3.904-0.011-5.856-0.016c-0.316-0.514-0.422-1.073-0.418-1.675
		c0.014-1.86,0.006-3.721,0.005-5.582C2.952,13.969,3.048,13.448,3.373,12.99z M6.42,20.327c0.482,0,0.965-0.007,1.447,0.004
		c0.182,0.004,0.272-0.03,0.261-0.241c-0.018-0.332-0.014-0.666-0.001-0.998c0.007-0.188-0.068-0.232-0.241-0.229
		c-0.62,0.007-1.241-0.01-1.86,0.009c-0.268,0.007-0.369-0.064-0.349-0.343c0.027-0.368,0.054-0.405,0.505-0.407
		c1.335-0.002,2.079-0.838,1.932-2.169c-0.086-0.777-0.753-1.451-1.528-1.484c-0.722-0.031-1.447-0.009-2.17-0.018
		c-0.165-0.002-0.223,0.057-0.219,0.22c0.009,0.333,0.013,0.667-0.002,1c-0.009,0.2,0.064,0.253,0.256,0.249
		c0.608-0.01,1.217,0.002,1.826-0.006c0.257-0.003,0.385,0.093,0.387,0.359c0.002,0.256-0.104,0.39-0.367,0.386
		c-0.138-0.002-0.275-0.002-0.413,0.003c-0.837,0.026-1.489,0.57-1.641,1.396c-0.098,0.533-0.059,1.077-0.027,1.614
		c0.024,0.398,0.338,0.646,0.756,0.654C5.455,20.335,5.938,20.327,6.42,20.327z"/>
	<path fill-rule="evenodd" clip-rule="evenodd" fill="#F1F1EF" d="M15.089,12.992c0.103-0.008,0.204-0.022,0.307-0.022
		c1.85-0.001,3.698-0.001,5.547,0c0.921,0.001,1.395,0.478,1.396,1.403c0.002,2.01,0.002,4.02,0,6.029
		c-0.001,0.933-0.461,1.389-1.399,1.39c-1.837,0.001-3.675,0-5.513-0.001c-0.113,0-0.228-0.012-0.343-0.018
		c-0.37-0.685-0.357-1.426-0.35-2.174c0.014-1.33,0-2.662,0.005-3.993C14.742,14.721,14.618,13.815,15.089,12.992z M17.221,20.327
		c0.264,0,0.528-0.01,0.791,0.002c1.501,0.07,2.27-1.382,1.71-2.681c-0.086-0.2-0.077-0.335,0.006-0.532
		c0.556-1.327-0.246-2.734-1.693-2.669c-0.595,0.025-1.192,0.011-1.789,0c-0.196-0.004-0.291,0.025-0.275,0.255
		c0.021,0.319,0.021,0.644-0.001,0.963c-0.017,0.231,0.078,0.259,0.274,0.255c0.597-0.011,1.193,0.005,1.79-0.008
		c0.283-0.006,0.39,0.109,0.391,0.386c0.001,0.289-0.151,0.34-0.395,0.338c-0.608-0.009-1.217,0.002-1.825-0.006
		c-0.174-0.003-0.246,0.043-0.238,0.229c0.014,0.32,0.02,0.645-0.002,0.964c-0.015,0.234,0.044,0.314,0.295,0.306
		c0.573-0.02,1.147,0.001,1.721-0.009c0.267-0.005,0.444,0.04,0.444,0.366c0.001,0.318-0.166,0.384-0.437,0.38
		c-0.585-0.009-1.171,0.008-1.756-0.009c-0.219-0.006-0.272,0.063-0.261,0.271c0.018,0.32,0.011,0.643,0,0.964
		c-0.004,0.162,0.017,0.252,0.217,0.242C16.53,20.315,16.876,20.327,17.221,20.327z"/>
	<path fill-rule="evenodd" clip-rule="evenodd" fill="#CFD4DA" d="M15.089,12.992c-0.471,0.823-0.347,1.729-0.351,2.614
		c-0.005,1.331,0.009,2.663-0.005,3.993c-0.008,0.748-0.021,1.489,0.35,2.174c-1.021,0.095-1.568-0.396-1.568-1.413
		c-0.001-1.996-0.002-3.993,0-5.989C13.515,13.396,14.102,12.885,15.089,12.992z"/>
	<path fill-rule="evenodd" clip-rule="evenodd" fill="#D4D9DF" d="M9.225,2.208C8.913,2.714,8.865,3.269,8.872,3.852
		C8.89,5.605,8.886,7.359,8.874,9.113C8.869,9.77,8.854,10.418,9.226,11c-1.075,0.075-1.588-0.399-1.588-1.47
		c0-1.951,0-3.903,0-5.854C7.638,2.6,8.141,2.135,9.225,2.208z"/>
	<path fill-rule="evenodd" clip-rule="evenodd" fill="#01B56F" d="M3.373,12.99c-0.325,0.458-0.421,0.979-0.42,1.527
		c0.001,1.861,0.009,3.722-0.005,5.582c-0.004,0.602,0.102,1.161,0.418,1.675c-0.432,0.048-0.851,0.026-1.196-0.284
		c-0.3-0.271-0.409-0.614-0.408-1.016c0.007-2.028,0.032-4.057-0.009-6.083C1.732,13.386,2.495,12.828,3.373,12.99z"/>
	<path fill-rule="evenodd" clip-rule="evenodd" fill="#E0E0E0" d="M12.657,12.501c-0.311,0.382-0.454,0.798-0.621,1.207
		c-0.122-0.44-0.305-0.824-0.584-1.207C11.852,12.501,12.219,12.501,12.657,12.501z"/>
	<path fill-rule="evenodd" clip-rule="evenodd" fill="#090909" d="M12.793,6.611c0,0.883-0.008,1.767,0.005,2.65
		c0.004,0.226-0.057,0.305-0.286,0.292c-0.32-0.018-0.643-0.011-0.963-0.002c-0.167,0.005-0.246-0.033-0.246-0.226
		c0.007-1.813,0.006-3.625,0.001-5.438c-0.001-0.177,0.048-0.244,0.232-0.237c0.333,0.013,0.667,0.018,0.998-0.002
		c0.226-0.013,0.266,0.077,0.264,0.278C12.787,4.821,12.793,5.716,12.793,6.611z"/>
	<path fill-rule="evenodd" clip-rule="evenodd" fill="#000201" d="M6.42,20.327c-0.483,0-0.965,0.008-1.447-0.002
		c-0.418-0.008-0.732-0.256-0.756-0.654c-0.032-0.537-0.07-1.081,0.027-1.614c0.152-0.825,0.804-1.369,1.641-1.396
		c0.138-0.005,0.275-0.005,0.413-0.003c0.263,0.004,0.369-0.13,0.367-0.386c-0.002-0.267-0.13-0.362-0.387-0.359
		c-0.609,0.008-1.218-0.004-1.826,0.006C4.26,15.923,4.188,15.87,4.196,15.67c0.015-0.333,0.011-0.667,0.002-1
		c-0.004-0.163,0.054-0.222,0.219-0.22c0.723,0.009,1.448-0.014,2.17,0.018c0.775,0.033,1.442,0.707,1.528,1.484
		c0.147,1.331-0.597,2.167-1.932,2.169c-0.451,0.002-0.479,0.039-0.505,0.407c-0.021,0.278,0.081,0.35,0.349,0.343
		c0.62-0.019,1.24-0.002,1.86-0.009c0.173-0.003,0.248,0.042,0.241,0.229c-0.013,0.332-0.017,0.666,0.001,0.998
		c0.011,0.211-0.079,0.245-0.261,0.241C7.385,20.32,6.902,20.327,6.42,20.327z"/>
	<path fill-rule="evenodd" clip-rule="evenodd" fill="#020202" d="M17.221,20.327c-0.345,0-0.69-0.012-1.033,0.006
		c-0.2,0.01-0.221-0.08-0.217-0.242c0.011-0.321,0.018-0.644,0-0.964c-0.012-0.208,0.042-0.276,0.261-0.271
		c0.585,0.017,1.171,0,1.756,0.009c0.271,0.004,0.438-0.062,0.437-0.38c0-0.326-0.178-0.371-0.444-0.366
		c-0.573,0.01-1.147-0.011-1.721,0.009c-0.251,0.009-0.31-0.071-0.295-0.306c0.021-0.319,0.016-0.644,0.002-0.964
		c-0.008-0.186,0.064-0.231,0.238-0.229c0.608,0.008,1.217-0.003,1.825,0.006c0.243,0.002,0.396-0.049,0.395-0.338
		c-0.001-0.276-0.107-0.392-0.391-0.386c-0.597,0.013-1.193-0.003-1.79,0.008c-0.196,0.004-0.291-0.023-0.274-0.255
		c0.022-0.319,0.022-0.644,0.001-0.963c-0.016-0.229,0.079-0.259,0.275-0.255c0.597,0.011,1.194,0.025,1.789,0
		c1.447-0.065,2.249,1.342,1.693,2.669c-0.083,0.197-0.092,0.332-0.006,0.532c0.56,1.299-0.209,2.751-1.71,2.681
		C17.749,20.317,17.484,20.327,17.221,20.327z"/>
</g>
</svg>
